<svg width="72" height="72" viewBox="0 0 72 72" fill="none" xmlns="http://www.w3.org/2000/svg">
<path d="M36 30.8571C42.3482 30.8571 48.2812 30.2812 53.7991 29.1295C59.3169 27.9777 63.6696 26.2768 66.8571 24.0268V30.8571C66.8571 32.7054 65.4776 34.4196 62.7187 36C59.9598 37.5804 56.2098 38.8326 51.4687 39.7567C46.7276 40.6808 41.5714 41.1429 36 41.1429C30.4285 41.1429 25.2723 40.6808 20.5312 39.7567C15.7901 38.8326 12.0401 37.5804 9.28122 36C6.52229 34.4196 5.14282 32.7054 5.14282 30.8571V24.0268C8.33032 26.2768 12.683 27.9777 18.2009 29.1295C23.7187 30.2812 29.6518 30.8571 36 30.8571ZM36 61.7143C42.3482 61.7143 48.2812 61.1384 53.7991 59.9866C59.3169 58.8348 63.6696 57.1339 66.8571 54.8839V61.7143C66.8571 63.5625 65.4776 65.2768 62.7187 66.8571C59.9598 68.4375 56.2098 69.6897 51.4687 70.6138C46.7276 71.5379 41.5714 72 36 72C30.4285 72 25.2723 71.5379 20.5312 70.6138C15.7901 69.6897 12.0401 68.4375 9.28122 66.8571C6.52229 65.2768 5.14282 63.5625 5.14282 61.7143V54.8839C8.33032 57.1339 12.683 58.8348 18.2009 59.9866C23.7187 61.1384 29.6518 61.7143 36 61.7143ZM36 46.2857C42.3482 46.2857 48.2812 45.7098 53.7991 44.558C59.3169 43.4062 63.6696 41.7054 66.8571 39.4554V46.2857C66.8571 48.1339 65.4776 49.8482 62.7187 51.4286C59.9598 53.0089 56.2098 54.2612 51.4687 55.1853C46.7276 56.1094 41.5714 56.5714 36 56.5714C30.4285 56.5714 25.2723 56.1094 20.5312 55.1853C15.7901 54.2612 12.0401 53.0089 9.28122 51.4286C6.52229 49.8482 5.14282 48.1339 5.14282 46.2857V39.4554C8.33032 41.7054 12.683 43.4062 18.2009 44.558C23.7187 45.7098 29.6518 46.2857 36 46.2857ZM36 0C41.5714 0 46.7276 0.462054 51.4687 1.38616C56.2098 2.31027 59.9598 3.5625 62.7187 5.14286C65.4776 6.72321 66.8571 8.4375 66.8571 10.2857V15.4286C66.8571 17.2768 65.4776 18.9911 62.7187 20.5714C59.9598 22.1518 56.2098 23.404 51.4687 24.3281C46.7276 25.2522 41.5714 25.7143 36 25.7143C30.4285 25.7143 25.2723 25.2522 20.5312 24.3281C15.7901 23.404 12.0401 22.1518 9.28122 20.5714C6.52229 18.9911 5.14282 17.2768 5.14282 15.4286V10.2857C5.14282 8.4375 6.52229 6.72321 9.28122 5.14286C12.0401 3.5625 15.7901 2.31027 20.5312 1.38616C25.2723 0.462054 30.4285 0 36 0Z" fill="#35363B"/>
</svg>
