<svg width="110" height="138" viewBox="0 0 110 138" fill="none" xmlns="http://www.w3.org/2000/svg">
<path d="M80.7812 63.1406C82.7031 63.1406 84.2969 64.7344 84.2969 66.6562C84.2969 68.5781 82.7031 70.1719 80.7812 70.1719C78.8594 70.1719 77.2656 68.5781 77.2656 66.6562C77.2656 64.7344 78.8594 63.1406 80.7812 63.1406Z" fill="#009EFB"/>
<path d="M29.2188 63.1406C31.1406 63.1406 32.7344 64.7344 32.7344 66.6562C32.7344 68.5781 31.1406 70.1719 29.2188 70.1719C27.2969 70.1719 25.7031 68.5781 25.7031 66.6562C25.7031 64.7344 27.2969 63.1406 29.2188 63.1406Z" fill="#009EFB"/>
<path d="M80.7812 1.03125H1.09375V136.969H108.906V29.1562" stroke="#455A64" stroke-miterlimit="10" stroke-linecap="round" stroke-linejoin="round"/>
<path d="M80.7812 1.03125L108.808 29.1562H80.7812V12.75" stroke="#455A64" stroke-miterlimit="10" stroke-linecap="round" stroke-linejoin="round"/>
<path d="M47.9688 80.7188C47.9688 76.8281 51.1094 73.6875 55 73.6875C58.8906 73.6875 62.0312 76.8281 62.0312 80.7188" stroke="#455A64" stroke-miterlimit="10" stroke-linecap="round" stroke-linejoin="round"/>
<path d="M77.2656 66.6562C77.2656 68.5781 78.8594 70.1719 80.7812 70.1719C82.7031 70.1719 84.2969 68.5781 84.2969 66.6562C84.2969 64.7344 82.7031 63.1406 80.7812 63.1406C78.8594 63.1406 77.2656 64.7344 77.2656 66.6562Z" stroke="#455A64" stroke-miterlimit="10" stroke-linecap="round" stroke-linejoin="round"/>
<path d="M32.7344 66.6562C32.7344 68.5781 31.1406 70.1719 29.2188 70.1719C27.2969 70.1719 25.7031 68.5781 25.7031 66.6562C25.7031 64.7344 27.2969 63.1406 29.2188 63.1406C31.1406 63.1406 32.7344 64.7344 32.7344 66.6562Z" stroke="#455A64" stroke-miterlimit="10" stroke-linecap="round" stroke-linejoin="round"/>
<path d="M80.7812 1.03125H1.09375V136.969H108.906V29.1562" stroke="#009EFB" stroke-miterlimit="10" stroke-linecap="round" stroke-linejoin="round"/>
<path d="M80.7812 1.03125L108.808 29.1562H80.7812V12.75" stroke="#009EFB" stroke-miterlimit="10" stroke-linecap="round" stroke-linejoin="round"/>
<path d="M47.9688 80.7188C47.9688 76.8281 51.1094 73.6875 55 73.6875C58.8906 73.6875 62.0312 76.8281 62.0312 80.7188" stroke="#009EFB" stroke-miterlimit="10" stroke-linecap="round" stroke-linejoin="round"/>
<path d="M77.2656 66.6562C77.2656 68.5781 78.8594 70.1719 80.7812 70.1719C82.7031 70.1719 84.2969 68.5781 84.2969 66.6562C84.2969 64.7344 82.7031 63.1406 80.7812 63.1406C78.8594 63.1406 77.2656 64.7344 77.2656 66.6562Z" stroke="#009EFB" stroke-miterlimit="10" stroke-linecap="round" stroke-linejoin="round"/>
<path d="M32.7344 66.6562C32.7344 68.5781 31.1406 70.1719 29.2188 70.1719C27.2969 70.1719 25.7031 68.5781 25.7031 66.6562C25.7031 64.7344 27.2969 63.1406 29.2188 63.1406C31.1406 63.1406 32.7344 64.7344 32.7344 66.6562Z" stroke="#009EFB" stroke-miterlimit="10" stroke-linecap="round" stroke-linejoin="round"/>
</svg>
