<svg width="50" height="50" viewBox="0 0 50 50" fill="none" xmlns="http://www.w3.org/2000/svg">
<path d="M32 35C32 35 40.312 35 41.098 35C45.463 35 49 31.463 49 27.099C49 22.735 45.463 19.197 41.098 19.197C41.078 19.197 41.06 19.2 41.04 19.2C41.101 18.706 41.143 18.206 41.143 17.696C41.143 10.986 35.704 5.54599 28.993 5.54599C23.764 5.54599 19.321 8.85499 17.607 13.487C16.52 12.398 15.016 11.723 13.356 11.723C10.037 11.723 7.347 14.413 7.347 17.731C7.347 17.816 7.357 17.898 7.36 17.982C3.695 18.995 1 22.344 1 26.331C1 31.119 4.881 35 9.67 35C10.497 35 18 35 18 35" stroke="#ADB5BD" stroke-width="2" stroke-miterlimit="10" stroke-linecap="round" stroke-linejoin="round"/>
<path d="M20 28L25 23L30 28" stroke="#ADB5BD" stroke-width="2" stroke-miterlimit="10" stroke-linecap="round"/>
<path d="M25 43V23.333" stroke="#ADB5BD" stroke-width="2" stroke-miterlimit="10" stroke-linecap="round"/>
</svg>
